name processed_emg_signals
nRows=68
nColumns=7
 
endheader
time	LGLTMED	LRF	LADDLONG	LBF	LTA	LGM
2.0939999999999435	0.0023226204745566	0.0061837078369867	0.0032558066395436	0.004001451836928	0.3918414955586048	0.0009746363181587
2.0949999999999434	0.0022976604995367	0.0061838679590089	0.0032456178419668	0.0039978013097439	0.3958855893593963	0.0009834050669191
2.0959999999999432	0.0022736217332249	0.0061838706874283	0.0032365333436265	0.0039958994836394	0.4000292483798071	0.0009923252547373
2.096999999999943	0.0022505359934348	0.0061836930784463	0.0032285508038451	0.0039957083892292	0.4042683457941477	0.0010013878066701
2.097999999999943	0.0022284332794409	0.0061833126062685	0.0032216663932962	0.0039971870812209	0.4085985698636371	0.0010105833539282
2.098999999999943	0.0022073417319003	0.006182707223594	0.00321587480539	0.0040002917378176	0.4130154305179337	0.0010199022476977
2.099999999999943	0.0021872875964763	0.0061818554200769	0.0032111692701417	0.0040049757657906	0.4175142662285205	0.0010293345733996
2.1009999999999427	0.0021682951911868	0.0061807362784885	0.0032075415704754	0.0040111899110291	0.4220902511566138	0.0010388701653554
2.1019999999999426	0.0021503868774901	0.0061793295283357	0.0032049820609159	0.0040188823743584	0.4267384025575451	0.0010484986218238
2.1029999999999425	0.0021335830351143	0.0061776155967182	0.0032034796886161	0.0040279989324068	0.4314535884229477	0.0010582093203775
2.1039999999999424	0.0021179020406285	0.0061755756562574	0.0032030220166731	0.0040384830632835	0.436230535341681	0.0010679914335831
2.1049999999999423	0.0021033602497467	0.0061731916699658	0.0032035952496877	0.0040502760768197	0.4410638365604643	0.0010778339449543
2.105999999999942	0.0020899719833511	0.0061704464329596	0.0032051842615215	0.0040633172491093	0.4459479602256904	0.001087725665144
2.106999999999942	0.0020777495172136	0.0061673236109392	0.0032077726252041	0.0040775439610755	0.4508772577887773	0.0010976552483461
2.107999999999942	0.0020667030753939	0.0061638077753723	0.0032113426449404	0.0040928918407766	0.4558459725585217	0.0011076112088797
2.108999999999942	0.0020568408272871	0.0061598844353302	0.0032158753901614	0.0041092949091537	0.4608482483851421	0.0011175819379284
2.1099999999999417	0.0020481688882954	0.0061555400659358	0.0032213507315655	0.0041266857289139	0.465878138462042	0.0011275557204087
2.1109999999999416	0.0020406913240992	0.0061507621333938	0.003227747379094	0.0041449955562321	0.4709296142328218	0.0011375207519462
2.1119999999999415	0.0020344101585032	0.0061455391165727	0.0032350429217906	0.004164154494941	0.4759965743927932	0.0011474651559376
2.1129999999999414	0.002029325384833	0.0061398605251105	0.0032432138694899	0.0041840916528707	0.4810728539762762	0.0011573770006852
2.1139999999999413	0.0020254349808541	0.0061337169140306	0.0032522356962787	0.004204735299984	0.4861522335232064	0.0011672443165926
2.114999999999941	0.0020227349271822	0.0061270998948779	0.0032620828856674	0.0042260130279422	0.4912284483209326	0.0011770551134185
2.115999999999941	0.0020212192291474	0.0061200021434226	0.0032727289774077	0.0042478519107241	0.4962951977192963	0.0011867973975853
2.116999999999941	0.0020208799420705	0.0061124174040146	0.0032841466158899	0.0042701786659076	0.5013461545189155	0.001196459189546
2.117999999999941	0.0020217071999033	0.0061043404907008	0.0032963076000548	0.004292919816213	0.5063749744337929	0.0012060285412133
2.1189999999999407	0.0020236892471789	0.0060957672852409	0.0033091829347546	0.0043160018509	0.5113753056298443	0.0012154935534567
2.1199999999999406	0.0020268124742136	0.0060866947321656	0.0033227428834961	0.0043393513866034	0.5163407983408963	0.0012248423936739
2.1209999999999405	0.0020310614554964	0.0060771208310382	0.0033369570224892	0.0043628953271919	0.521265114563398	0.0012340633134424
2.1219999999999404	0.0020364189911948	0.0060670446260842	0.0033517942959227	0.004386561022236	0.5261419378306105	0.001243144666256
2.1229999999999403	0.0020428661517048	0.0060564661933687	0.0033672230723755	0.004410276423676	0.5309649830662933	0.0012520749253494
2.12399999999994	0.0020503823251639	0.0060453866256969	0.0033832112022652	0.004433970240295	0.5357280065169254	0.0012608427016112
2.12499999999994	0.0020589452678429	0.0060338080154224	0.0033997260762249	0.0044575720896086	0.5404248157603178	0.0012694367615843
2.12599999999994	0.0020685311573268	0.0060217334353363	0.0034167346842906	0.0044810126467907	0.5450492797871247	0.0012778460455483
2.12699999999994	0.002079114648389	0.0060091669178139	0.0034342036757693	0.0045042237902567	0.5495953391502121	0.0012860596856765
2.1279999999999397	0.0020906689314613	0.0059961134323867	0.0034520994196527	0.0045271387435267	0.5540570161751139	0.0012940670242575
2.1289999999999396	0.0021031657935969	0.005982578861908	0.0034703880654329	0.0045496922129947	0.558428425222892	0.0013018576319648
2.1299999999999395	0.0021165756818259	0.0059685699774699	0.0034890356041786	0.0045718205212244	0.5627037829946745	0.0013094213261572
2.1309999999999394	0.0021308677687938	0.0059540944122254	0.0035080079297284	0.0045934617353909	0.5668774188650699	0.001316748189185
2.1319999999999393	0.0021460100205794	0.0059391606342519	0.0035272708998619	0.0046145557904848	0.5709437852296159	0.0013238285866721
2.132999999999939	0.0021619692665761	0.0059237779185805	0.0035467903973067	0.0046350446068886	0.5748974678494191	0.0013306531857435
2.133999999999939	0.0021787112713212	0.0059079563185033	0.0035665323904436	0.0046548722019391	0.5787331961741792	0.0013372129731581
2.134999999999939	0.0021962008081496	0.0058917066362553	0.0035864629935744	0.0046739847951022	0.5824458536227584	0.0013434992733079
2.135999999999939	0.0022144017345465	0.0058750403931545	0.0036065485266197	0.0046923309064181	0.5860304877984672	0.0013495037660377
2.1369999999999387	0.0022332770690703	0.0058579697992702	0.0036267555741198	0.0047098614479215	0.5894823206142252	0.0013552185042375
2.1379999999999386	0.0022527890697187	0.0058405077226786	0.0036470510434091	0.0047265298077923	0.5927967583007839	0.0013606359311563
2.1389999999999385	0.0022728993136021	0.0058226676583545	0.0036674022218366	0.0047422919270463	0.595969401269202	0.0013657488973793
2.1399999999999384	0.0022935687777931	0.0058044636967374	0.0036877768329065	0.0047571063686286	0.5989960537967923	0.0013705506774108
2.1409999999999383	0.00231475792121	0.0057859104920025	0.0037081430912055	0.0047709343788063	0.6018727335038084	0.0013750349857964
2.141999999999938	0.0023364267673888	0.0057670232300571	0.0037284697559893	0.0047837399407895	0.6045956805861997	0.0013791959927164
2.142999999999938	0.0023585349879948	0.0057478175962795	0.0037487261832934	0.0047954898205254	0.6071613667678256	0.0013830283389767
2.143999999999938	0.0023810419869165	0.0057283097430102	0.0037688823764452	0.0048061536046318	0.6095665039335604	0.0013865271503205
2.144999999999938	0.0024039069847815	0.0057085162568016	0.0037889090348549	0.0048157037304551	0.6118080524028291	0.0013896880509755
2.1459999999999377	0.0024270891037295	0.0056884541254305	0.0038087776009747	0.0048241155082643	0.6138832288014034	0.0013925071763519
2.1469999999999376	0.0024505474522644	0.0056681407046759	0.0038284603053227	0.0048313671356117	0.6157895134879021	0.0013949811848029
2.1479999999999375	0.0024742412100097	0.0056475936848691	0.0038479302094852	0.0048374397039236	0.6175246574905183	0.0013971072683589
2.1489999999999374	0.0024981297121768	0.0056268310572274	0.0038671612470289	0.0048423171974061	0.619086688909328	0.0013988831623556
2.1499999999999373	0.0025221725335528	0.0056058710799985	0.003886128262259	0.0048459864843721	0.6204739187405113	0.001400307153878
2.150999999999937	0.0025463295718101	0.0055847322444573	0.0039048070467691	0.0048484373011214	0.6216849460812633	0.0014013780889551
2.151999999999937	0.0025705611299316	0.0055634332408201	0.0039231743737229	0.0048496622285465	0.6227186626779652	0.0014020953784474
2.152999999999937	0.0025948279975437	0.005541992924151	0.0039412080298085	0.0048496566616863	0.6235742567848385	0.0014024590025811
2.153999999999937	0.0026190915309415	0.0055204302803434	0.0039588868448036	0.0048484187725008	0.6242512163051946	0.001402469514091
2.1549999999999367	0.0026433137315877	0.0054987643922529	0.0039761907186858	0.0048459494661848	0.6247493311918888	0.0014021280399435
2.1559999999999366	0.0026674573228627	0.0054770144060575	0.0039931006462255	0.0048422523313552	0.6250686950872054	0.0014014362816161
2.1569999999999365	0.0026914858248393	0.0054551994979104	0.0040095987389956	0.0048373335844628	0.625209706185043	0.0014003965139134
2.1579999999999364	0.0027153636268529	0.0054333388409454	0.0040256682447332	0.004831202008776	0.6251730673002442	0.0013990115823034
2.1589999999999363	0.0027390560576364	0.0054114515726811	0.0040412935639868	0.0048238688882755	0.624959785131871	0.0013972848987633
2.159999999999936	0.0027625294527876	0.0053895567628595	0.004056460263989	0.004815347936793	0.6245711687096118	0.0013952204361259
2.160999999999936	0.0027857512193456	0.0053676733817481	0.0040711550897141	0.0048056552227111	0.624008827015428	0.0013928227209271
